<?xml version="1.0" standalone="no"?>
<!DOCTYPE svg PUBLIC "-//W3C//DTD SVG 20010904//EN"
 "http://www.w3.org/TR/2001/REC-SVG-20010904/DTD/svg10.dtd">
<svg version="1.0" xmlns="http://www.w3.org/2000/svg"
 width="1728.000000pt" height="1728.000000pt" viewBox="0 0 1728.000000 1728.000000"
 preserveAspectRatio="xMidYMid meet">
<metadata>
Created by potrace 1.14, written by Peter Selinger 2001-2017
</metadata>
<g transform="translate(0.000000,1728.000000) scale(0.100000,-0.100000)"
fill="#000000" stroke="none">
<path d="M14085 12459 c-49 -10 -97 -20 -105 -22 -8 -1 -21 -6 -28 -11 -7 -4
-16 -5 -19 -2 -3 3 -13 1 -23 -4 -9 -5 -28 -11 -41 -14 -32 -6 -231 -77 -294
-105 -241 -108 -505 -277 -690 -441 -50 -45 -220 -214 -263 -263 -100 -113
-281 -367 -327 -457 -10 -19 -21 -37 -25 -40 -3 -3 -17 -25 -29 -50 -13 -25
-29 -56 -37 -70 -7 -14 -23 -45 -34 -70 -11 -25 -25 -52 -30 -60 -12 -21 -91
-212 -95 -230 -2 -8 -10 -31 -18 -50 -9 -19 -26 -69 -37 -110 -12 -41 -24 -82
-27 -90 -3 -8 -7 -19 -8 -25 -2 -5 -8 -30 -15 -55 -12 -43 -14 -54 -25 -101
-2 -11 -6 -28 -9 -37 -3 -9 -8 -30 -11 -47 -3 -16 -12 -70 -21 -120 -19 -104
-20 -113 -39 -280 -26 -223 -26 -712 -1 -930 6 -49 18 -148 21 -180 2 -16 7
-41 10 -55 3 -14 7 -38 10 -55 10 -72 70 -340 75 -340 1 0 3 -7 5 -16 12 -64
105 -335 147 -429 11 -25 33 -74 49 -110 16 -36 34 -72 39 -80 6 -8 16 -26 22
-40 7 -14 27 -49 45 -77 18 -29 30 -53 27 -53 -3 0 2 -7 10 -16 9 -8 16 -21
16 -29 0 -7 3 -15 8 -17 4 -1 23 -28 42 -58 45 -71 194 -269 257 -340 55 -63
188 -196 257 -257 105 -94 351 -273 376 -273 5 0 10 -3 10 -7 0 -5 10 -13 23
-19 12 -6 61 -32 109 -58 141 -75 414 -183 485 -191 12 -2 27 -6 33 -10 5 -3
20 -8 33 -11 21 -4 40 -8 90 -19 12 -3 37 -8 56 -11 19 -3 44 -10 57 -14 12
-5 24 -7 26 -5 2 3 31 0 64 -5 229 -36 604 -31 839 11 33 6 71 13 85 15 108
19 326 85 459 140 79 33 272 129 296 147 6 4 57 37 115 73 58 36 107 69 110
73 3 4 30 24 60 46 30 22 60 44 66 50 6 5 36 30 65 55 91 76 262 253 349 362
107 135 98 123 151 203 87 132 126 199 194 335 21 41 42 82 46 90 5 8 12 22
15 30 8 19 33 77 50 115 19 42 71 185 101 275 13 41 27 84 31 95 4 11 8 508 9
1104 3 953 1 1091 -12 1138 -9 29 -16 55 -16 58 0 2 -9 28 -20 57 -11 29 -22
61 -24 70 -2 9 -9 27 -16 40 -7 13 -12 25 -12 28 1 10 -5 26 -68 170 -32 74
-187 378 -199 390 -3 3 -10 14 -17 25 -61 102 -97 155 -104 155 -5 0 -9 5 -9
11 0 9 -34 56 -110 152 -71 91 -265 289 -353 362 -27 22 -54 45 -60 50 -24 21
-163 123 -222 162 -137 91 -412 235 -497 258 -5 2 -10 4 -13 5 -3 1 -8 3 -12
4 -5 1 -12 4 -18 8 -9 5 -201 65 -235 73 -193 44 -221 45 -659 44 -374 -1
-437 -4 -516 -20z m800 -284 c17 -4 46 -8 65 -10 59 -5 119 -16 199 -37 42
-10 85 -21 96 -22 50 -9 256 -88 335 -128 30 -15 60 -28 67 -28 7 0 13 -4 13
-9 0 -5 14 -14 32 -22 38 -15 277 -173 334 -220 23 -19 61 -50 85 -69 55 -44
213 -203 259 -259 19 -23 42 -50 50 -59 9 -9 29 -35 45 -57 16 -22 32 -42 35
-45 12 -10 70 -101 70 -110 0 -4 4 -10 8 -12 16 -6 198 -330 207 -368 1 -3 14
-32 29 -65 39 -83 153 -390 146 -390 -1 0 1 -7 3 -15 13 -39 30 -114 30 -126
0 -8 4 -14 9 -14 5 0 7 -4 4 -8 -3 -4 0 -26 5 -48 15 -60 26 -121 35 -189 2
-16 6 -39 8 -50 3 -11 8 -49 11 -85 4 -36 9 -76 11 -90 10 -54 18 -264 16
-430 -1 -153 -7 -325 -12 -325 -1 0 -3 -18 -4 -40 -5 -72 -18 -180 -23 -188
-2 -4 -6 -32 -9 -61 -2 -29 -8 -65 -13 -79 -5 -14 -7 -28 -4 -31 3 -3 1 -12
-5 -19 -7 -8 -9 -16 -6 -20 3 -3 1 -21 -5 -40 -7 -19 -13 -43 -15 -53 -4 -20
-25 -102 -30 -119 -1 -5 -8 -30 -15 -55 -7 -25 -15 -52 -18 -60 -3 -8 -7 -19
-8 -25 -7 -26 -91 -247 -105 -274 -5 -9 -36 -72 -69 -141 -72 -148 -93 -185
-176 -310 -69 -104 -69 -104 -171 -229 -187 -227 -426 -425 -690 -573 -104
-58 -297 -140 -394 -168 -41 -12 -82 -24 -90 -27 -8 -4 -19 -5 -23 -4 -4 0
-16 -3 -25 -8 -9 -5 -35 -12 -56 -15 -21 -4 -48 -8 -60 -11 -19 -4 -41 -7
-126 -20 -185 -28 -506 -24 -720 9 -59 9 -171 34 -240 53 -221 60 -449 163
-622 281 -26 17 -52 32 -58 32 -5 0 -10 3 -10 8 0 4 -17 18 -38 32 -20 14 -42
29 -49 35 -6 5 -30 26 -54 45 -165 136 -294 273 -429 455 -25 33 -48 62 -52
63 -5 2 -8 7 -8 12 0 8 -61 105 -80 127 -5 7 -10 14 -10 17 0 3 -15 31 -34 63
-42 72 -116 216 -116 225 0 4 -11 31 -24 60 -23 51 -50 117 -52 128 0 3 -6 19
-13 35 -7 17 -14 37 -17 45 -2 8 -15 53 -30 100 -14 47 -30 101 -34 120 -40
169 -73 343 -85 445 -4 28 -8 64 -10 80 -25 207 -25 638 0 900 8 86 52 360 61
385 3 8 8 26 10 40 13 67 54 213 81 285 8 22 15 42 15 45 1 9 10 32 48 130 55
137 142 316 201 410 124 199 193 292 307 419 120 134 231 238 344 321 29 22
58 43 63 48 23 19 134 92 141 92 4 0 15 6 23 14 35 31 315 166 343 166 9 0 20
5 23 10 4 6 11 8 16 5 5 -4 9 -2 9 3 0 5 19 13 43 19 23 6 78 21 122 33 97 27
89 25 150 35 57 10 64 12 68 15 1 1 16 3 32 4 82 8 170 19 173 21 7 6 428 -3
457 -10z"/>
<path d="M14478 11245 c-2 -3 -31 -7 -63 -11 -33 -3 -63 -8 -67 -11 -5 -2 -18
-6 -29 -8 -105 -20 -245 -81 -362 -158 -148 -97 -282 -228 -385 -378 -20 -30
-40 -55 -44 -57 -5 -2 -8 -10 -8 -17 0 -8 -6 -20 -13 -27 -10 -11 -45 -72 -78
-138 -26 -51 -92 -204 -95 -220 0 -3 -4 -12 -7 -20 -10 -24 -53 -179 -66 -240
-7 -30 -15 -62 -18 -70 -3 -8 -7 -28 -8 -45 -2 -16 -6 -43 -10 -60 -3 -16 -8
-48 -10 -70 -3 -22 -7 -58 -10 -80 -24 -194 -24 -668 -1 -792 2 -11 7 -46 10
-79 4 -32 8 -66 11 -74 2 -8 6 -31 9 -50 61 -391 258 -793 507 -1037 93 -91
115 -109 204 -167 143 -94 253 -142 400 -175 139 -31 368 -34 495 -7 14 3 39
8 55 12 102 21 241 83 360 162 159 105 368 328 451 482 10 19 21 37 24 40 35
34 191 405 178 422 -1 2 4 12 10 24 6 11 13 32 16 45 2 13 11 51 20 84 8 33
17 71 20 85 4 22 12 69 22 125 2 11 7 44 10 74 3 30 8 63 10 75 22 116 21 558
-2 721 -3 22 -7 54 -9 70 -4 39 -14 103 -21 135 -3 14 -7 37 -9 52 -2 15 -9
46 -16 70 -6 24 -13 54 -16 68 -11 65 -98 302 -161 440 -43 94 -172 297 -227
356 -96 106 -187 187 -290 262 -100 72 -299 150 -455 178 -40 7 -326 15 -332
9z m271 -326 c80 -13 90 -15 146 -34 58 -19 189 -88 211 -110 9 -8 20 -15 25
-15 20 0 197 -188 246 -260 63 -94 121 -203 157 -295 16 -38 34 -83 41 -100
20 -48 55 -164 55 -184 0 -10 3 -21 7 -25 4 -3 8 -12 9 -19 1 -7 6 -37 13 -67
24 -122 38 -226 47 -355 5 -72 5 -380 -1 -445 -10 -128 -28 -260 -47 -340 -5
-25 -11 -52 -13 -60 -14 -67 -59 -218 -80 -265 -46 -107 -91 -200 -97 -203 -5
-2 -8 -8 -8 -14 0 -5 -24 -47 -54 -91 -244 -371 -565 -531 -943 -470 -200 32
-370 127 -526 294 -65 69 -183 235 -206 289 -6 14 -15 32 -20 40 -20 34 -61
130 -61 144 0 8 -4 16 -9 18 -6 2 -11 14 -13 28 -2 14 -6 30 -9 35 -7 12 -56
196 -63 240 -3 17 -8 41 -11 54 -6 32 -16 107 -21 161 -2 25 -6 68 -10 95 -8
64 -9 452 -1 525 3 30 8 82 11 115 3 33 8 71 11 85 2 13 7 42 10 65 3 22 8 48
11 58 4 11 8 31 10 45 8 45 12 67 14 67 1 0 3 7 5 15 1 8 8 35 16 60 7 25 13
50 15 55 16 72 119 289 185 390 77 119 137 188 249 285 41 36 140 101 140 93
0 -4 4 -3 8 2 7 11 81 46 94 46 4 0 28 8 53 19 25 11 45 18 45 16 0 -2 26 2
58 9 69 15 224 17 301 4z"/>
<path d="M8517 12343 c-2 -1 -45 -5 -97 -8 -52 -3 -111 -8 -130 -10 -19 -2
-55 -6 -80 -9 -49 -5 -85 -11 -170 -27 -30 -6 -71 -13 -90 -16 -61 -9 -65 -10
-80 -16 -8 -3 -49 -13 -90 -22 -41 -9 -115 -28 -165 -42 -49 -14 -97 -26 -105
-28 -8 -2 -35 -11 -60 -20 -25 -9 -52 -18 -60 -20 -43 -10 -243 -88 -335 -130
-27 -12 -52 -22 -55 -22 -3 0 -25 -10 -50 -23 -25 -13 -46 -23 -47 -22 -1 0
-48 -24 -103 -54 -56 -30 -106 -54 -111 -54 -5 0 -9 -4 -9 -10 0 -5 -4 -10 -9
-10 -22 0 -245 -144 -360 -232 -20 -15 -40 -31 -46 -35 -82 -63 -175 -145
-271 -241 -70 -69 -72 -74 -56 -91 24 -24 123 -139 147 -169 11 -14 30 -36 43
-50 12 -14 44 -50 70 -80 26 -30 56 -64 67 -77 11 -12 43 -49 70 -80 28 -32
55 -62 60 -69 6 -6 35 -40 65 -76 75 -89 109 -128 147 -167 17 -18 28 -33 25
-33 -4 0 -2 -4 4 -8 9 -6 64 -66 128 -142 29 -34 169 -195 215 -248 l38 -42
58 72 c123 155 203 241 326 350 110 98 128 112 219 178 30 22 60 43 65 48 6 4
21 13 35 20 14 7 39 20 55 30 17 10 59 30 95 46 36 15 74 31 85 36 31 14 117
41 145 47 14 2 43 8 65 13 99 22 327 30 471 17 132 -12 295 -77 394 -156 56
-45 110 -100 110 -113 0 -4 6 -13 14 -20 27 -27 68 -121 81 -187 12 -58 13
-156 2 -201 -10 -41 -43 -116 -60 -136 -42 -53 -131 -139 -187 -181 -147 -110
-478 -309 -756 -453 -284 -148 -455 -240 -470 -251 -6 -5 -14 -6 -17 -2 -4 3
-7 1 -7 -5 0 -7 -4 -12 -8 -12 -14 0 -237 -122 -240 -132 -2 -4 -8 -8 -13 -8
-23 0 -419 -259 -459 -300 -3 -3 -23 -19 -45 -35 -22 -16 -49 -37 -60 -46
-216 -180 -382 -351 -505 -519 -30 -41 -58 -76 -62 -78 -5 -2 -8 -8 -8 -13 0
-6 -17 -36 -38 -67 -78 -115 -161 -297 -224 -487 -48 -144 -41 -119 -77 -293
-28 -133 -35 -176 -46 -277 -3 -22 -7 -53 -9 -70 -9 -57 -19 -230 -20 -322 -1
-51 -3 -93 -6 -93 -3 0 -5 -16 -5 -35 0 -19 3 -35 7 -35 4 0 5 -6 2 -13 -6
-18 -10 -197 -4 -198 3 -1 1185 -2 2627 -3 1745 -1 2624 2 2626 9 3 9 1 1533
-2 1545 0 3 -665 5 -1476 5 -811 0 -1475 3 -1475 6 0 4 15 22 34 40 144 143
491 390 696 494 41 22 77 41 80 44 3 4 25 16 50 29 25 12 77 40 115 61 68 38
126 69 325 174 52 27 120 65 151 83 31 19 60 34 63 34 13 0 451 293 459 306 4
8 14 14 22 14 7 0 15 3 17 8 2 4 23 23 48 42 205 159 364 329 496 530 109 166
207 375 228 486 2 10 9 38 16 62 6 24 13 55 15 70 2 15 6 45 9 67 26 170 22
430 -10 595 -9 52 -12 65 -14 65 -1 0 -3 14 -5 30 -13 97 -127 392 -185 474
-10 14 -39 59 -65 100 -127 198 -333 393 -554 524 -278 165 -547 262 -886 322
-199 35 -356 47 -613 49 -106 1 -194 1 -195 -1z m453 -327 c92 -6 144 -11 201
-21 15 -3 44 -7 65 -10 38 -5 65 -9 114 -20 14 -3 34 -7 45 -9 54 -12 219 -58
235 -66 9 -5 20 -6 24 -3 3 3 6 1 6 -5 0 -7 7 -12 15 -12 50 0 432 -192 470
-236 6 -6 17 -15 26 -20 17 -9 94 -73 140 -116 20 -19 135 -151 170 -195 5 -7
14 -24 21 -38 6 -14 14 -25 18 -25 3 0 17 -22 31 -50 13 -27 27 -50 32 -50 4
0 7 -9 7 -20 0 -11 5 -20 10 -20 6 0 10 -8 10 -18 0 -10 4 -22 8 -27 9 -10 40
-86 48 -115 2 -8 11 -40 20 -70 9 -30 20 -74 25 -98 8 -40 11 -61 24 -167 6
-50 7 -281 1 -315 -3 -14 -7 -43 -10 -65 -3 -22 -8 -51 -11 -65 -3 -14 -7 -34
-9 -45 -13 -71 -54 -178 -104 -276 -58 -112 -118 -211 -134 -217 -4 -2 -8 -8
-8 -13 0 -10 -9 -21 -91 -118 -75 -88 -190 -194 -309 -286 -36 -27 -67 -52
-70 -55 -3 -3 -12 -9 -22 -15 -9 -5 -87 -58 -175 -116 -87 -59 -176 -117 -198
-129 -22 -12 -56 -31 -75 -42 -40 -24 -109 -61 -265 -143 -107 -56 -174 -92
-265 -143 -25 -13 -83 -45 -130 -70 -180 -96 -500 -299 -508 -323 -2 -5 -8 -9
-14 -9 -6 0 -22 -10 -37 -22 -15 -13 -40 -32 -55 -43 -15 -11 -36 -27 -46 -35
-144 -119 -212 -186 -291 -285 -74 -92 -169 -230 -169 -244 0 -6 -4 -11 -8
-11 -4 0 -13 -12 -19 -27 -7 -16 -32 -59 -57 -98 -24 -38 -43 -72 -41 -75 2
-3 730 -5 1619 -5 889 0 1617 -2 1617 -5 5 -24 3 -897 -2 -905 -5 -7 -781 -10
-2301 -9 -1261 1 -2296 2 -2300 3 -9 1 3 253 17 341 2 14 6 50 10 81 3 31 7
65 9 75 2 11 7 41 10 68 4 27 9 53 11 57 3 4 7 24 11 45 12 76 70 276 106 363
6 14 12 29 12 32 2 16 72 155 81 161 6 4 7 8 3 8 -11 0 115 204 142 230 3 3
18 23 35 45 16 22 41 53 55 69 49 57 120 136 120 133 0 -1 37 34 83 78 46 44
98 91 116 105 18 14 40 31 48 39 14 13 85 68 150 116 15 11 72 50 127 87 56
37 106 72 113 78 7 5 15 10 18 10 4 0 26 14 51 30 24 17 44 28 44 24 0 -4 8 0
18 8 24 22 147 89 512 281 63 34 151 80 195 103 44 23 112 59 150 79 39 20 95
51 126 68 30 18 86 50 125 71 38 22 71 44 72 48 2 4 8 8 13 8 9 0 88 49 239
149 92 60 102 67 131 94 10 9 21 17 24 17 3 0 44 37 90 81 179 173 250 333
249 564 -1 198 -49 336 -179 513 -5 8 -41 45 -78 83 -142 144 -330 240 -555
284 -135 26 -443 26 -582 0 -14 -2 -41 -7 -60 -9 -19 -3 -53 -10 -75 -16 -22
-6 -49 -13 -60 -15 -11 -3 -58 -19 -105 -36 -47 -17 -100 -36 -117 -43 -18 -6
-33 -14 -33 -18 0 -5 -7 -8 -15 -8 -41 0 -341 -200 -465 -310 -37 -33 -210
-193 -223 -206 -8 -8 -9 -7 -107 106 -36 41 -69 80 -75 86 -5 6 -30 35 -55 64
-25 29 -52 61 -61 69 -8 9 -37 43 -65 76 -27 32 -56 66 -64 75 -16 17 -34 38
-140 160 -36 41 -68 77 -72 78 -18 8 -6 31 30 58 20 16 48 39 62 51 14 13 28
23 32 23 3 0 13 6 20 13 25 25 222 157 234 157 7 0 14 4 16 8 7 17 301 172
325 172 7 0 13 4 13 10 0 5 3 9 8 8 8 -1 38 10 116 46 52 24 296 115 326 121
8 2 64 18 123 35 60 16 118 32 130 34 12 3 22 5 22 6 0 1 7 3 15 5 8 1 49 10
90 19 81 18 97 21 180 36 51 8 101 15 190 25 19 3 82 7 140 11 58 3 106 7 107
7 4 4 324 -1 413 -7z"/>
<path d="M3403 12242 c-13 -2 -23 -8 -23 -14 0 -8 -45 -69 -85 -114 -5 -7 -19
-24 -30 -40 -11 -15 -40 -53 -65 -84 -83 -105 -102 -129 -232 -297 -71 -93
-137 -177 -146 -188 -10 -11 -40 -49 -67 -85 -27 -36 -54 -70 -60 -77 -18 -22
-30 -37 -60 -78 -17 -22 -32 -42 -35 -45 -3 -3 -35 -43 -71 -90 -59 -77 -337
-434 -366 -470 -15 -19 -237 -304 -267 -343 -11 -15 -28 -36 -36 -46 -8 -10
-26 -33 -40 -51 -14 -18 -124 -159 -244 -314 -121 -155 -240 -308 -265 -341
-25 -33 -48 -62 -51 -65 -5 -4 -89 -112 -112 -145 -7 -9 -63 -80 -91 -115 -7
-8 -29 -37 -50 -65 -21 -27 -50 -65 -65 -84 -23 -28 -56 -70 -100 -126 -4 -5
-28 -37 -52 -70 -25 -33 -50 -64 -56 -70 -6 -5 -31 -37 -55 -70 -24 -33 -46
-62 -49 -65 -8 -8 -52 -62 -80 -100 -34 -44 -217 -281 -233 -300 -7 -8 -51
-65 -97 -125 -46 -61 -87 -112 -90 -115 -3 -3 -34 -41 -68 -86 l-62 -81 0
-791 0 -790 1435 1 c949 1 1436 -1 1438 -8 2 -5 3 -344 2 -753 l-1 -742 846 2
845 3 1 743 c1 408 3 745 7 748 3 3 206 6 451 6 l446 0 0 774 -1 774 -449 0
c-353 0 -450 3 -451 13 0 6 -1 994 -1 2195 -1 1200 -4 2182 -7 2183 -16 3
-1139 4 -1158 1z m844 -2502 c0 -1202 1 -2191 2 -2197 1 -10 98 -13 450 -13
l449 0 -1 -452 -2 -453 -443 -2 c-244 0 -446 -4 -450 -7 -3 -4 -6 -343 -6
-754 -1 -411 -4 -751 -8 -757 -4 -6 -187 -10 -520 -9 -282 1 -515 2 -518 3 -3
1 -5 341 -5 757 0 416 -2 759 -5 762 -3 4 -675 7 -1495 7 l-1490 0 0 499 0
499 23 31 c12 17 31 42 42 56 11 14 35 44 53 66 17 23 44 57 59 75 14 19 94
122 177 229 83 107 157 202 164 210 6 9 30 38 52 65 21 28 44 53 50 57 6 5 6
8 0 8 -6 0 -5 3 1 8 11 7 66 76 197 247 33 44 64 82 67 85 4 3 11 12 16 21 5
9 23 34 41 55 18 21 93 118 168 214 75 96 147 189 160 205 13 17 31 39 40 50
24 31 180 232 247 319 33 43 66 86 74 95 12 15 109 139 161 207 48 61 86 110
109 139 13 17 52 66 86 111 35 45 115 148 179 230 64 82 178 228 253 324 74
96 145 186 156 198 11 13 20 27 20 32 0 5 3 10 8 12 6 3 29 31 109 135 12 15
30 38 40 50 10 12 27 34 38 49 34 46 138 179 145 184 4 3 11 12 16 21 10 18
59 80 87 110 9 10 17 21 17 23 0 3 37 52 83 109 45 57 93 119 107 137 14 19
33 42 43 52 9 10 17 21 17 25 0 4 11 18 24 32 l25 26 343 0 343 0 2 -2185z"/>
<path d="M3323 10446 c-10 -13 -26 -35 -35 -47 -20 -28 -413 -541 -469 -614
-44 -57 -62 -79 -89 -115 -71 -94 -274 -360 -292 -384 -13 -16 -80 -104 -150
-195 -70 -91 -131 -170 -135 -176 -5 -5 -51 -66 -103 -135 -52 -69 -97 -127
-100 -130 -3 -3 -34 -43 -70 -90 -80 -107 -118 -156 -153 -200 -15 -19 -31
-40 -35 -45 -37 -53 -138 -181 -144 -183 -4 -2 -8 -10 -8 -17 0 -7 -4 -15 -8
-17 -8 -3 -148 -183 -182 -232 -12 -18 -79 -105 -162 -211 -61 -77 -88 -114
-88 -119 0 -3 506 -6 1125 -6 l1124 0 0 1470 c0 809 -1 1470 -4 1470 -2 0 -12
-11 -22 -24z m-294 -1761 l0 -834 -640 -1 c-351 0 -639 2 -639 6 0 5 31 48 67
94 7 8 33 42 58 75 68 90 80 105 127 165 24 30 51 66 61 80 9 14 38 53 65 86
26 34 89 117 141 185 52 68 97 126 101 129 3 3 30 39 60 80 30 41 57 77 60 80
4 3 35 43 70 90 35 47 66 87 69 90 4 3 33 41 65 85 33 44 62 82 65 85 3 3 33
41 66 85 33 44 64 85 70 91 5 6 35 45 65 87 30 42 58 76 62 76 4 1 7 -375 7
-834z"/>
</g>
</svg>
