<svg xmlns="http://www.w3.org/2000/svg">
    <symbol id="facebook" width="21" height="21" viewBox="0 0 21 21" >
        <path d="M19.4202 0.903046H1.02021C0.577715 0.903046 0.220215 1.26055 0.220215 1.70305V20.103C0.220215 20.5455 0.577715 20.903 1.02021 20.903H19.4202C19.8627 20.903 20.2202 20.5455 20.2202 20.103V1.70305C20.2202 1.26055 19.8627 0.903046 19.4202 0.903046ZM18.6202 19.303H14.0177V13.158H16.6177L17.0077 10.1405H14.0177V8.21305C14.0177 7.33805 14.2602 6.74305 15.5127 6.74305H17.1102V4.04305C16.8327 4.00555 15.8852 3.92305 14.7802 3.92305C12.4752 3.92305 10.8977 5.33055 10.8977 7.91305V10.138H8.29272V13.1555H10.9002V19.303H1.82021V2.50305H18.6202V19.303Z"/>
    </symbol>

    <symbol id="instagram" width="21" height="21" viewBox="0 0 21 21">
        <path d="M19.6556 6.81076L19.6557 6.82206L19.6564 6.83334C19.7175 7.87564 19.7177 8.20538 19.72 10.9015L19.72 10.9186C19.72 10.9187 19.72 10.9188 19.72 10.919C19.72 13.6251 19.7056 13.9552 19.6583 15.0118L19.6581 15.0118L19.6579 15.0241C19.6423 15.7977 19.4967 16.5593 19.2252 17.2816C18.9927 17.8788 18.6383 18.4213 18.1844 18.8745C17.7305 19.3277 17.187 19.6817 16.5886 19.9139C15.8651 20.1847 15.1007 20.3308 14.3282 20.346L14.3185 20.3462L14.3088 20.3468C13.265 20.4079 12.9323 20.408 10.2159 20.408C7.50634 20.408 7.17568 20.3937 6.11616 20.3464L6.11616 20.3464L6.1103 20.3462C5.33528 20.3207 4.57031 20.1634 3.84834 19.8811L3.84644 19.8803C3.24688 19.6487 2.70238 19.2947 2.24769 18.841C1.79366 18.3881 1.43916 17.8457 1.20673 17.2485C0.935169 16.5249 0.789546 15.7632 0.774033 14.9908L0.773839 14.9812L0.773275 14.9716C0.712071 13.9284 0.711914 13.5974 0.711914 10.8853C0.711914 8.17995 0.726327 7.84985 0.773634 6.79204L0.7738 6.79204L0.774044 6.77917C0.78864 6.00848 0.934957 5.24594 1.20669 4.52442C1.43872 3.92692 1.79299 3.38422 2.24693 2.93098C2.70084 2.47779 3.24442 2.12401 3.843 1.89226C4.56643 1.62142 5.33062 1.47491 6.10311 1.45895L6.1123 1.45876L6.12148 1.45823C7.16559 1.39819 7.4985 1.39804 10.2148 1.39804C12.9249 1.39804 13.2553 1.41133 14.3135 1.45856L14.3135 1.4587L14.3255 1.45895C15.0983 1.47479 15.8628 1.6213 16.5866 1.89223C17.1851 2.12416 17.7286 2.47801 18.1825 2.9312C18.6365 3.38447 18.9909 3.92716 19.2231 4.52465C19.4988 5.25592 19.6452 6.02947 19.6556 6.81076ZM4.57171 10.8797C4.57171 13.9898 7.0951 16.5082 10.2082 16.5082C11.7028 16.5082 13.1364 15.9154 14.1935 14.8599C15.2506 13.8044 15.8446 12.3727 15.8446 10.8797C15.8446 9.38675 15.2506 7.95505 14.1935 6.89958C13.1364 5.84414 11.7028 5.25134 10.2082 5.25134C7.0951 5.25134 4.57171 7.76965 4.57171 10.8797ZM13.8513 5.56164C13.8513 6.49938 14.61 7.25749 15.5491 7.25749C16.4858 7.25749 17.2457 6.49938 17.2457 5.56164C17.2457 5.3389 17.2017 5.11837 17.1164 4.91262C17.031 4.70689 16.9059 4.52 16.7483 4.36261C16.5907 4.20522 16.4036 4.08042 16.1977 3.99529C15.9919 3.91015 15.7713 3.86635 15.5485 3.86635C15.3257 3.86635 15.1051 3.91015 14.8993 3.99529C14.6934 4.08042 14.5063 4.20522 14.3487 4.36261C14.1911 4.52 14.066 4.70688 13.9806 4.91262C13.8953 5.11837 13.8513 5.3389 13.8513 5.56164Z"/>
        <path d="M13.0446 10.8802C13.0446 12.4435 11.7753 13.7119 10.2081 13.7119C8.64085 13.7119 7.37158 12.4435 7.37158 10.8802C7.37158 9.31692 8.64085 8.04843 10.2081 8.04843C11.7753 8.04843 13.0446 9.31692 13.0446 10.8802Z"/>
    </symbol>

    <symbol id="cart" width="28" height="27" viewBox="0 0 28 27">
        <g clip-path="url(#clip0_134_32)">
            <path d="M10.4898 2.14341C10.5849 2.19824 10.6679 2.27057 10.7339 2.35627C10.8 2.44197 10.8478 2.53936 10.8748 2.64288C10.9017 2.7464 10.9072 2.85402 10.891 2.95959C10.8747 3.06516 10.8371 3.16662 10.7801 3.25816L6.48371 10.153H22.0661L17.768 3.25816C17.653 3.07327 17.619 2.85195 17.6734 2.6429C17.7278 2.43384 17.8663 2.25417 18.0583 2.14341C18.2503 2.03265 18.4801 1.99987 18.6972 2.05229C18.9143 2.1047 19.1009 2.23802 19.2159 2.42291L24.0337 10.153H26.0874C26.535 10.153 26.9642 10.3242 27.2806 10.629C27.5971 10.9337 27.7749 11.3471 27.7749 11.778V13.403C27.7749 13.834 27.5971 14.2473 27.2806 14.5521C26.9642 14.8568 26.535 15.028 26.0874 15.028V22.3405C26.0874 23.418 25.6429 24.4513 24.8518 25.2132C24.0606 25.975 22.9875 26.403 21.8687 26.403H6.68115C5.56227 26.403 4.48921 25.975 3.69805 25.2132C2.90688 24.4513 2.4624 23.418 2.4624 22.3405V15.028C2.01485 15.028 1.58563 14.8568 1.26916 14.5521C0.952692 14.2473 0.774902 13.834 0.774902 13.403V11.778C0.774902 11.3471 0.952692 10.9337 1.26916 10.629C1.58563 10.3242 2.01485 10.153 2.4624 10.153H4.51609L9.33053 2.42291C9.38747 2.33135 9.46258 2.25148 9.55158 2.18788C9.64057 2.12428 9.74171 2.07818 9.84921 2.05223C9.95671 2.02627 10.0685 2.02096 10.1781 2.03661C10.2877 2.05225 10.3931 2.08855 10.4882 2.14341H10.4898ZM4.1499 15.028V22.3405C4.1499 22.987 4.41659 23.607 4.89129 24.0641C5.36599 24.5212 6.00982 24.778 6.68115 24.778H21.8687C22.54 24.778 23.1838 24.5212 23.6585 24.0641C24.1332 23.607 24.3999 22.987 24.3999 22.3405V15.028H4.1499ZM2.4624 11.778V13.403H26.0874V11.778H2.4624ZM7.5249 16.653C7.74868 16.653 7.96329 16.7386 8.12152 16.891C8.27976 17.0434 8.36865 17.25 8.36865 17.4655V22.3405C8.36865 22.556 8.27976 22.7627 8.12152 22.9151C7.96329 23.0674 7.74868 23.153 7.5249 23.153C7.30113 23.153 7.08651 23.0674 6.92828 22.9151C6.77005 22.7627 6.68115 22.556 6.68115 22.3405V17.4655C6.68115 17.25 6.77005 17.0434 6.92828 16.891C7.08651 16.7386 7.30113 16.653 7.5249 16.653ZM10.8999 16.653C11.1237 16.653 11.3383 16.7386 11.4965 16.891C11.6548 17.0434 11.7437 17.25 11.7437 17.4655V22.3405C11.7437 22.556 11.6548 22.7627 11.4965 22.9151C11.3383 23.0674 11.1237 23.153 10.8999 23.153C10.6761 23.153 10.4615 23.0674 10.3033 22.9151C10.145 22.7627 10.0562 22.556 10.0562 22.3405V17.4655C10.0562 17.25 10.145 17.0434 10.3033 16.891C10.4615 16.7386 10.6761 16.653 10.8999 16.653ZM14.2749 16.653C14.4987 16.653 14.7133 16.7386 14.8715 16.891C15.0298 17.0434 15.1187 17.25 15.1187 17.4655V22.3405C15.1187 22.556 15.0298 22.7627 14.8715 22.9151C14.7133 23.0674 14.4987 23.153 14.2749 23.153C14.0511 23.153 13.8365 23.0674 13.6783 22.9151C13.52 22.7627 13.4312 22.556 13.4312 22.3405V17.4655C13.4312 17.25 13.52 17.0434 13.6783 16.891C13.8365 16.7386 14.0511 16.653 14.2749 16.653ZM17.6499 16.653C17.8737 16.653 18.0883 16.7386 18.2465 16.891C18.4048 17.0434 18.4937 17.25 18.4937 17.4655V22.3405C18.4937 22.556 18.4048 22.7627 18.2465 22.9151C18.0883 23.0674 17.8737 23.153 17.6499 23.153C17.4261 23.153 17.2115 23.0674 17.0533 22.9151C16.895 22.7627 16.8062 22.556 16.8062 22.3405V17.4655C16.8062 17.25 16.895 17.0434 17.0533 16.891C17.2115 16.7386 17.4261 16.653 17.6499 16.653ZM21.0249 16.653C21.2487 16.653 21.4633 16.7386 21.6215 16.891C21.7798 17.0434 21.8687 17.25 21.8687 17.4655V22.3405C21.8687 22.556 21.7798 22.7627 21.6215 22.9151C21.4633 23.0674 21.2487 23.153 21.0249 23.153C20.8011 23.153 20.5865 23.0674 20.4283 22.9151C20.27 22.7627 20.1812 22.556 20.1812 22.3405V17.4655C20.1812 17.25 20.27 17.0434 20.4283 16.891C20.5865 16.7386 20.8011 16.653 21.0249 16.653Z"/>
        </g>
        <defs>
        <clipPath id="clip0_134_32">
            <rect width="27" height="26" transform="translate(0.774902 0.403046)"/>
        </clipPath>
        </defs>
    </symbol>

    <symbol id="brackets" width="86" height="86" viewBox="0 0 86 86">
        <g clip-path="url(#clip0_8_191)">
            <path d="M0.774902 70.3165H7.1499L36.6343 42.2347V3.91028H0.774902V70.3165ZM6.0874 9.22278H31.3218V39.9609L6.0874 63.9947V9.22278Z" fill="black"/>
            <path d="M43.7749 3.91028V70.3165H50.1499L79.6343 42.2347V3.91028H43.7749ZM74.3218 39.9609L49.0874 63.9947V9.22632H74.3218V39.9609Z" fill="black"/>
        </g>
        <defs>
            <clipPath id="clip0_8_191">
                <rect width="85" height="85" fill="white" transform="translate(0.774902 0.910278)"/>
            </clipPath>
        </defs>
    </symbol>

    <symbol id="phone" width="47" height="46" viewBox="0 0 47 46">
        <mask id="path-1-inside-1_8_23" fill="white">
            <path d="M44.857 4.78057L44.7813 4.73324L35.1752 0L24.807 13.8234L29.5781 20.1849C29.4339 22.5781 28.4199 24.8361 26.727 26.5338C25.0341 28.2316 22.779 29.2519 20.3862 29.4029L20.3578 29.4053L13.9963 24.6341L0.172852 35.0023L4.90609 44.6084L4.95342 44.6842C5.45278 45.4793 6.3237 46 7.31768 46H9.805C29.8905 46 46.1729 29.7177 46.1729 9.63214V7.15429V7.14483C46.1729 6.15085 45.6522 5.27993 44.8688 4.78767L44.857 4.78057ZM42.6229 9.63214C42.6229 27.7273 27.9002 42.4501 9.805 42.4501H7.7981L4.6576 36.0744L13.9963 29.0716L19.1957 32.9718H19.7874C23.3282 32.9674 26.7227 31.559 29.2267 29.0555C31.7306 26.552 33.1396 23.1577 33.1446 19.6169V19.0253L29.2444 13.8258L36.2472 4.48711L42.6229 7.62762V9.63214Z"/>
        </mask>
        <path d="M44.857 4.78057L44.7813 4.73324L35.1752 0L24.807 13.8234L29.5781 20.1849C29.4339 22.5781 28.4199 24.8361 26.727 26.5338C25.0341 28.2316 22.779 29.2519 20.3862 29.4029L20.3578 29.4053L13.9963 24.6341L0.172852 35.0023L4.90609 44.6084L4.95342 44.6842C5.45278 45.4793 6.3237 46 7.31768 46H9.805C29.8905 46 46.1729 29.7177 46.1729 9.63214V7.15429V7.14483C46.1729 6.15085 45.6522 5.27993 44.8688 4.78767L44.857 4.78057ZM42.6229 9.63214C42.6229 27.7273 27.9002 42.4501 9.805 42.4501H7.7981L4.6576 36.0744L13.9963 29.0716L19.1957 32.9718H19.7874C23.3282 32.9674 26.7227 31.559 29.2267 29.0555C31.7306 26.552 33.1396 23.1577 33.1446 19.6169V19.0253L29.2444 13.8258L36.2472 4.48711L42.6229 7.62762V9.63214Z" fill="black"/>
    </symbol>

    <symbol id="mail" width="60" height="59" viewBox="0 0 60 59">
        <path d="M53.7202 9.62402H5.78271C4.76289 9.62402 3.93896 10.4479 3.93896 11.4678V48.3428C3.93896 49.3626 4.76289 50.1865 5.78271 50.1865H53.7202C54.74 50.1865 55.564 49.3626 55.564 48.3428V11.4678C55.564 10.4479 54.74 9.62402 53.7202 9.62402ZM51.4155 16.008V46.0381H8.0874V16.008L6.49717 14.7692L8.76152 11.8596L11.2275 13.7782H48.2812L50.7472 11.8596L53.0115 14.7692L51.4155 16.008ZM48.2812 13.7725L29.7515 28.1768L11.2218 13.7725L8.75576 11.8538L6.49141 14.7635L8.08164 16.0022L27.7637 31.3054C28.3297 31.7451 29.0261 31.9838 29.7428 31.9838C30.4596 31.9838 31.1559 31.7451 31.722 31.3054L51.4155 16.008L53.0058 14.7692L50.7414 11.8596L48.2812 13.7725Z" fill="black"/>
    </symbol>
</svg>