<svg width="60" height="59" fill="none" xmlns="http://www.w3.org/2000/svg"><path d="M53.72 9.624H5.783c-1.02 0-1.844.824-1.844 1.844v36.875c0 1.02.824 1.843 1.844 1.843H53.72c1.02 0 1.844-.823 1.844-1.843V11.468c0-1.02-.824-1.844-1.844-1.844zm-2.304 6.384v30.03H8.087v-30.03l-1.59-1.239 2.265-2.91 2.465 1.92h37.054l2.466-1.92 2.264 2.91-1.596 1.239zm-3.135-2.235l-18.53 14.404-18.53-14.404-2.465-1.92-2.265 2.91 1.59 1.24 19.683 15.302a3.226 3.226 0 003.958 0l19.694-15.297 1.59-1.239-2.265-2.91-2.46 1.914z" fill="#000"/></svg>