<svg width="28" height="27" fill="none" xmlns="http://www.w3.org/2000/svg"><g clip-path="url(#clip0_134_32)"><path d="M10.49 2.143a.833.833 0 01.244.213.8.8 0 01.157.604.794.794 0 01-.11.298l-4.297 6.895h15.582l-4.298-6.895a.787.787 0 01-.095-.615.816.816 0 01.385-.5.872.872 0 01.64-.09.842.842 0 01.518.37l4.818 7.73h2.053c.448 0 .877.171 1.194.476.316.305.494.718.494 1.149v1.625a1.6 1.6 0 01-.494 1.15 1.72 1.72 0 01-1.194.475v7.312a3.988 3.988 0 01-1.235 2.873 4.303 4.303 0 01-2.983 1.19H6.68a4.303 4.303 0 01-2.983-1.19 3.988 3.988 0 01-1.236-2.873v-7.312c-.447 0-.876-.171-1.193-.476a1.595 1.595 0 01-.494-1.149v-1.625c0-.43.178-.844.494-1.149a1.72 1.72 0 011.193-.476h2.054l4.815-7.73a.858.858 0 01.848-.386.878.878 0 01.31.106zM4.15 15.028v7.312c0 .647.267 1.267.741 1.724a2.582 2.582 0 001.79.714H21.87c.671 0 1.315-.257 1.79-.714a2.393 2.393 0 00.74-1.724v-7.312H4.15zm-1.688-3.25v1.625h23.625v-1.625H2.462zm5.063 4.875a.86.86 0 01.597.238.797.797 0 01.247.575v4.874a.798.798 0 01-.247.575.86.86 0 01-.597.238.86.86 0 01-.597-.238.798.798 0 01-.247-.575v-4.875c0-.215.09-.422.247-.574a.86.86 0 01.597-.238zm3.375 0a.86.86 0 01.596.238.797.797 0 01.248.575v4.874a.798.798 0 01-.248.575.86.86 0 01-.596.238.86.86 0 01-.597-.238.797.797 0 01-.247-.575v-4.875c0-.215.089-.422.247-.574a.86.86 0 01.597-.238zm3.375 0a.86.86 0 01.596.238.797.797 0 01.248.575v4.874a.798.798 0 01-.248.575.86.86 0 01-.596.238.86.86 0 01-.597-.238.797.797 0 01-.247-.575v-4.875c0-.215.089-.422.247-.574a.86.86 0 01.597-.238zm3.375 0a.86.86 0 01.597.238.797.797 0 01.247.575v4.874a.798.798 0 01-.247.575.86.86 0 01-.597.238.86.86 0 01-.597-.238.797.797 0 01-.247-.575v-4.875c0-.215.089-.422.247-.574a.86.86 0 01.597-.238zm3.375 0a.86.86 0 01.597.238.797.797 0 01.247.575v4.874a.798.798 0 01-.247.575.86.86 0 01-.597.238.86.86 0 01-.597-.238.797.797 0 01-.247-.575v-4.875c0-.215.089-.422.247-.574a.86.86 0 01.597-.238z" fill="#fff"/></g><defs><clipPath id="clip0_134_32"><path fill="#fff" transform="translate(.775 .403)" d="M0 0h27v26H0z"/></clipPath></defs></svg>