<svg xmlns="http://www.w3.org/2000/svg"><symbol id="facebook" viewBox="0 0 21 21"><path d="M19.42.903H1.02a.8.8 0 00-.8.8v18.4a.8.8 0 00.8.8h18.4a.8.8 0 00.8-.8v-18.4a.8.8 0 00-.8-.8zm-.8 18.4h-4.602v-6.145h2.6l.39-3.018h-2.99V8.213c0-.875.242-1.47 1.495-1.47h1.597v-2.7a21.101 21.101 0 00-2.33-.12c-2.305 0-3.882 1.408-3.882 3.99v2.225H8.293v3.018H10.9v6.147H1.82v-16.8h16.8v16.8z"/></symbol><symbol id="instagram" viewBox="0 0 21 21"><path d="M19.656 6.81v.023c.062 1.043.062 1.372.064 4.069v.017s0 0 0 0c0 2.706-.014 3.036-.062 4.093h0v.012a6.797 6.797 0 01-.433 2.258 4.62 4.62 0 01-2.636 2.632 6.832 6.832 0 01-2.26.432h-.02c-1.044.062-1.377.062-4.093.062-2.71 0-3.04-.014-4.1-.062h0-.006a6.828 6.828 0 01-2.262-.465h-.002a4.62 4.62 0 01-2.64-2.633 6.807 6.807 0 01-.432-2.257v-.02c-.062-1.043-.062-1.374-.062-4.086 0-2.705.014-3.035.062-4.093h0v-.013a6.76 6.76 0 01.433-2.255 4.61 4.61 0 012.636-2.632 6.85 6.85 0 012.26-.433h.018c1.045-.06 1.377-.061 4.094-.061 2.71 0 3.04.013 4.098.06h0l.012.001a6.85 6.85 0 012.262.433 4.623 4.623 0 012.636 2.633c.276.73.422 1.504.433 2.286zM4.572 10.88a5.631 5.631 0 005.636 5.628 5.64 5.64 0 003.986-1.648 5.625 5.625 0 000-7.96 5.64 5.64 0 00-3.986-1.649 5.631 5.631 0 00-5.636 5.629zm9.28-5.318c0 .937.758 1.695 1.697 1.695a1.696 1.696 0 10-1.2-2.894 1.697 1.697 0 00-.498 1.199z" fill="#fff" stroke="#fff"/><path d="M13.045 10.88a2.834 2.834 0 01-2.837 2.832 2.834 2.834 0 01-2.836-2.832 2.834 2.834 0 012.836-2.832 2.834 2.834 0 012.837 2.832z" fill="#fff" stroke="#fff"/></symbol></svg>