<svg xmlns="http://www.w3.org/2000/svg"><symbol id="facebook" viewBox="0 0 21 21"><path d="M19.42.903H1.02a.8.8 0 00-.8.8v18.4a.8.8 0 00.8.8h18.4a.8.8 0 00.8-.8v-18.4a.8.8 0 00-.8-.8zm-.8 18.4h-4.602v-6.145h2.6l.39-3.018h-2.99V8.213c0-.875.242-1.47 1.495-1.47h1.597v-2.7a21.101 21.101 0 00-2.33-.12c-2.305 0-3.882 1.408-3.882 3.99v2.225H8.293v3.018H10.9v6.147H1.82v-16.8h16.8v16.8z"/></symbol><symbol id="instagram" viewBox="0 0 21 21"><path d="M19.656 6.81v.023c.062 1.043.062 1.372.064 4.069v.017c0 2.706-.014 3.036-.062 4.093v.012a6.797 6.797 0 01-.433 2.258 4.62 4.62 0 01-2.636 2.632 6.832 6.832 0 01-2.26.432h-.02c-1.044.062-1.377.062-4.093.062-2.71 0-3.04-.014-4.1-.062H6.11a6.828 6.828 0 01-2.262-.465h-.002a4.62 4.62 0 01-2.64-2.633 6.807 6.807 0 01-.432-2.257v-.02c-.062-1.043-.062-1.374-.062-4.086 0-2.705.014-3.035.062-4.093v-.013a6.76 6.76 0 01.433-2.255 4.61 4.61 0 012.636-2.632 6.85 6.85 0 012.26-.433h.018c1.045-.06 1.377-.061 4.094-.061 2.71 0 3.04.013 4.098.06l.012.001a6.85 6.85 0 012.262.433 4.623 4.623 0 012.636 2.633c.276.73.422 1.504.433 2.286zM4.572 10.88a5.631 5.631 0 005.636 5.628 5.64 5.64 0 003.986-1.648 5.625 5.625 0 000-7.96 5.64 5.64 0 00-3.986-1.649 5.631 5.631 0 00-5.636 5.629zm9.28-5.318c0 .937.758 1.695 1.697 1.695a1.696 1.696 0 10-1.2-2.894 1.697 1.697 0 00-.498 1.199z"/><path d="M13.045 10.88a2.834 2.834 0 01-2.837 2.832 2.834 2.834 0 01-2.836-2.832 2.834 2.834 0 012.836-2.832 2.834 2.834 0 012.837 2.832z"/></symbol><symbol id="cart" viewBox="0 0 28 27"><g clip-path="url(#clip0_134_32)"><path d="M10.49 2.143a.833.833 0 01.244.213.8.8 0 01.157.604.794.794 0 01-.11.298l-4.297 6.895h15.582l-4.298-6.895a.787.787 0 01-.095-.615.816.816 0 01.385-.5.872.872 0 01.64-.09.842.842 0 01.518.37l4.818 7.73h2.053c.448 0 .877.171 1.194.476.316.305.494.718.494 1.149v1.625a1.6 1.6 0 01-.494 1.15 1.72 1.72 0 01-1.194.475v7.312a3.988 3.988 0 01-1.235 2.873 4.303 4.303 0 01-2.983 1.19H6.68a4.303 4.303 0 01-2.983-1.19 3.988 3.988 0 01-1.236-2.873v-7.312c-.447 0-.876-.171-1.193-.476a1.595 1.595 0 01-.494-1.149v-1.625c0-.43.178-.844.494-1.149a1.72 1.72 0 011.193-.476h2.054l4.815-7.73a.858.858 0 01.848-.386.878.878 0 01.31.106zM4.15 15.028v7.312c0 .647.267 1.267.741 1.724a2.582 2.582 0 001.79.714H21.87c.671 0 1.315-.257 1.79-.714a2.393 2.393 0 00.74-1.724v-7.312H4.15zm-1.688-3.25v1.625h23.625v-1.625H2.462zm5.063 4.875a.86.86 0 01.597.238.797.797 0 01.247.575v4.874a.798.798 0 01-.247.575.86.86 0 01-.597.238.86.86 0 01-.597-.238.798.798 0 01-.247-.575v-4.875c0-.215.09-.422.247-.574a.86.86 0 01.597-.238zm3.375 0a.86.86 0 01.596.238.797.797 0 01.248.575v4.874a.798.798 0 01-.248.575.86.86 0 01-.596.238.86.86 0 01-.597-.238.797.797 0 01-.247-.575v-4.875c0-.215.089-.422.247-.574a.86.86 0 01.597-.238zm3.375 0a.86.86 0 01.596.238.797.797 0 01.248.575v4.874a.798.798 0 01-.248.575.86.86 0 01-.596.238.86.86 0 01-.597-.238.797.797 0 01-.247-.575v-4.875c0-.215.089-.422.247-.574a.86.86 0 01.597-.238zm3.375 0a.86.86 0 01.597.238.797.797 0 01.247.575v4.874a.798.798 0 01-.247.575.86.86 0 01-.597.238.86.86 0 01-.597-.238.797.797 0 01-.247-.575v-4.875c0-.215.089-.422.247-.574a.86.86 0 01.597-.238zm3.375 0a.86.86 0 01.597.238.797.797 0 01.247.575v4.874a.798.798 0 01-.247.575.86.86 0 01-.597.238.86.86 0 01-.597-.238.797.797 0 01-.247-.575v-4.875c0-.215.089-.422.247-.574a.86.86 0 01.597-.238z"/></g><defs><clipPath id="clip0_134_32"><path transform="translate(.775 .403)" d="M0 0h27v26H0z"/></clipPath></defs></symbol><symbol id="brackets" viewBox="0 0 86 86"><g clip-path="url(#clip0_8_191)"><path d="M.775 70.317H7.15l29.484-28.082V3.91H.774v66.407zM6.087 9.223h25.235V39.96L6.087 63.995V9.223zM43.775 3.91v66.407h6.375l29.484-28.082V3.91h-35.86zm30.547 36.05L49.087 63.996V9.226h25.235v30.735z"/></g><defs><clipPath id="clip0_8_191"><path fill="#fff" transform="translate(.775 .91)" d="M0 0h85v85H0z"/></clipPath></defs></symbol><symbol id="phone" viewBox="0 0 47 46"><mask id="path-1-inside-1_8_23" fill="#fff"><path d="M44.857 4.78l-.076-.047L35.175 0 24.807 13.823l4.771 6.362a9.829 9.829 0 01-9.192 9.218l-.028.002-6.362-4.77L.173 35.001l4.733 9.606.047.076c.5.795 1.37 1.316 2.365 1.316h2.487C29.89 46 46.173 29.718 46.173 9.632V7.144c0-.993-.52-1.864-1.304-2.356l-.012-.007zm-2.234 4.852c0 18.095-14.723 32.818-32.818 32.818H7.798l-3.14-6.376 9.338-7.002 5.2 3.9h.591a13.374 13.374 0 0013.358-13.355v-.592l-3.9-5.2 7.002-9.338 6.376 3.14v2.005z"/></mask><path d="M44.857 4.78l-.076-.047L35.175 0 24.807 13.823l4.771 6.362a9.829 9.829 0 01-9.192 9.218l-.028.002-6.362-4.77L.173 35.001l4.733 9.606.047.076c.5.795 1.37 1.316 2.365 1.316h2.487C29.89 46 46.173 29.718 46.173 9.632V7.144c0-.993-.52-1.864-1.304-2.356l-.012-.007zm-2.234 4.852c0 18.095-14.723 32.818-32.818 32.818H7.798l-3.14-6.376 9.338-7.002 5.2 3.9h.591a13.374 13.374 0 0013.358-13.355v-.592l-3.9-5.2 7.002-9.338 6.376 3.14v2.005z"/></symbol><symbol id="mail" viewBox="0 0 60 59"><path d="M53.72 9.624H5.783c-1.02 0-1.844.824-1.844 1.844v36.875c0 1.02.824 1.843 1.844 1.843H53.72c1.02 0 1.844-.823 1.844-1.843V11.468c0-1.02-.824-1.844-1.844-1.844zm-2.304 6.384v30.03H8.087v-30.03l-1.59-1.239 2.265-2.91 2.465 1.92h37.054l2.466-1.92 2.264 2.91-1.596 1.239zm-3.135-2.235l-18.53 14.404-18.53-14.404-2.465-1.92-2.265 2.91 1.59 1.24 19.683 15.302a3.226 3.226 0 003.958 0l19.694-15.297 1.59-1.239-2.265-2.91-2.46 1.914z"/></symbol><symbol id="close" viewBox="0 0 32 33"><path d="M16 2.2c-7.731 0-14 6.27-14 14 0 7.732 6.269 14 14 14s14-6.268 14-14c0-7.73-6.269-14-14-14zm5.169 19.32l-2.063-.01L16 17.807l-3.103 3.7-2.066.01a.249.249 0 01-.25-.25.26.26 0 01.06-.163l4.065-4.844-4.065-4.84a.25.25 0 01.19-.412l2.066.008L16 14.72l3.103-3.7 2.063-.01c.137 0 .25.11.25.25a.26.26 0 01-.06.163l-4.06 4.841 4.063 4.844a.25.25 0 01-.19.413z"/></symbol></svg>