<svg width="47" height="46" fill="none" xmlns="http://www.w3.org/2000/svg"><mask id="path-1-inside-1_8_23" fill="#fff"><path d="M44.857 4.78l-.076-.047L35.175 0 24.807 13.823l4.771 6.362a9.829 9.829 0 01-9.192 9.218l-.028.002-6.362-4.77L.173 35.001l4.733 9.606.047.076c.5.795 1.37 1.316 2.365 1.316h2.487C29.89 46 46.173 29.718 46.173 9.632V7.144c0-.993-.52-1.864-1.304-2.356l-.012-.007zm-2.234 4.852c0 18.095-14.723 32.818-32.818 32.818H7.798l-3.14-6.376 9.338-7.002 5.2 3.9h.591a13.374 13.374 0 0013.358-13.355v-.592l-3.9-5.2 7.002-9.338 6.376 3.14v2.005z"/></mask><path d="M44.857 4.78l-.076-.047L35.175 0 24.807 13.823l4.771 6.362a9.829 9.829 0 01-9.192 9.218l-.028.002-6.362-4.77L.173 35.001l4.733 9.606.047.076c.5.795 1.37 1.316 2.365 1.316h2.487C29.89 46 46.173 29.718 46.173 9.632V7.144c0-.993-.52-1.864-1.304-2.356l-.012-.007zm-2.234 4.852c0 18.095-14.723 32.818-32.818 32.818H7.798l-3.14-6.376 9.338-7.002 5.2 3.9h.591a13.374 13.374 0 0013.358-13.355v-.592l-3.9-5.2 7.002-9.338 6.376 3.14v2.005z" fill="#000"/><path d="M44.857 4.78L2.987 71.773l.613.384.62.372L44.857 4.78zm-.076-.047l41.87-66.991-3.378-2.112-3.575-1.761L44.781 4.733zM35.175 0l34.917-70.865-58.79-28.968-39.325 52.431L35.175 0zM24.807 13.823l-63.199-47.401-35.552 47.4 35.551 47.401 63.2-47.4zm4.771 6.362l78.857 4.75 1.744-28.949-17.4-23.201-63.2 47.4zm-9.192 9.218L15.412-49.44l-.795.05-.794.066 6.563 78.727zm-.028.002l-47.4 63.2 24.03 18.022 29.932-2.495-6.562-78.727zm-6.362-4.77l47.4-63.2-47.401-35.552-47.4 35.553 47.401 63.198zM.173 35.001L-47.23-28.196l-52.43 39.325 28.967 58.79L.173 35.003zm4.733 9.606l-70.865 34.918 1.762 3.574 2.111 3.379 66.992-41.87zm.047.076l-66.991 41.87.044.072.045.071L4.953 44.684zM44.87 4.788l42.033-66.89-.694-.436-.703-.421L44.87 4.788zM7.799 42.45l-70.87 34.908 21.719 44.092h49.15v-79zm-3.141-6.376l-47.395-63.203-52.434 39.319 28.96 58.793L4.658 36.074zm9.338-7.002l47.405-63.197-47.397-35.553L-33.4-34.132l47.395 63.204zm5.2 3.9L-28.21 96.168l21.068 15.804h26.337v-79zm.591 0v79h.098l-.098-79zm13.358-13.355l79 .112v-.112h-79zm0-.592h79V-7.31L96.341-28.38 33.145 19.025zm-3.9-5.2L-33.96-33.568l-35.546 47.402 35.553 47.397 63.196-47.404zm7.002-9.338l34.909-70.869-58.794-28.96-39.319 52.434L36.247 4.487zm6.376 3.14h79v-49.15L77.531-63.24 42.623 7.628zM86.727-62.21l-.075-.047L2.91 71.725l.076.047L86.727-62.21zm-7.029-3.92l-9.606-4.734L.258 70.865l9.606 4.733 69.834-141.73zM-28.023-47.4l-10.369 13.823L88.006 61.225l10.368-13.823-126.397-94.804zm-10.37 108.624l4.771 6.362 126.4-94.8-4.771-6.362-126.4 94.8zm-10.886-45.79a69.172 69.172 0 0120.066-44.682L82.667 82.316a88.828 88.828 0 0025.768-57.38l-157.714-9.502zm20.066-44.682A69.172 69.172 0 0115.412-49.44l9.948 157.686a88.827 88.827 0 0057.307-25.93L-29.213-29.249zm43.037-20.075l-.029.002L26.92 108.132l.029-.002L13.823-49.324zm53.934 15.53l-6.362-4.772-94.8 126.4 6.362 4.771 94.8-126.4zm-101.163-4.77L-47.23-28.197 47.575 98.2l13.823-10.368-94.804-126.397zM-70.692 69.92l4.733 9.606L75.771 9.69 71.037.085-70.692 69.92zm8.606 16.559l.048.075L71.945 2.814l-.047-.076-133.983 83.74zm.137.218C-47.725 109.348-22.198 125 7.318 125V-33C34.845-33 58.63-18.39 71.856 2.671L-61.95 86.697zM7.318 125h2.487V-33H7.318v158zm2.487 0c63.716 0 115.368-51.652 115.368-115.368h-158C-32.827-13.913-13.74-33 9.805-33v158zM125.173 9.632V7.154h-158v2.478h158zm0-2.478v-.01h-158v.01h158zm0-.01c0-29.308-15.469-54.917-38.27-69.246L2.835 71.678C-18.4 58.332-32.827 34.465-32.827 7.144h158zM85.505-62.958l-.011-.008L4.22 72.529l.012.007L85.505-62.96zM-36.377 9.632c0-25.535 20.647-46.182 46.182-46.182v158c61.726 0 111.818-50.092 111.818-111.818h-158zM9.805-36.55H7.798v158h2.007v-158zM78.667 7.542l-3.14-6.376-141.738 69.817 3.14 6.375L78.667 7.542zM52.053 99.278l9.338-7.003-94.79-126.407-9.338 7.002 94.79 126.408zm-85.461-7.01l5.2 3.9L66.6-30.225l-5.2-3.9-94.808 126.393zm52.604 19.704h.591v-158h-.591v158zm.69 0a92.376 92.376 0 0065.197-27.05L-26.63-26.811a65.626 65.626 0 0146.32-19.217l.195 158zm65.197-27.05a92.377 92.377 0 0027.062-65.193l-158-.224A65.626 65.626 0 01-26.63-26.81L85.083 84.922zm27.062-65.305v-.592h-158v.592h158zM96.341-28.38l-3.9-5.2-126.393 94.81 3.9 5.199L96.341-28.38zm-3.893 89.6l7.003-9.339-126.408-94.79-7.002 9.339L92.448 61.22zM1.338 75.356l6.377 3.14L77.53-63.24l-6.375-3.14L1.339 75.355zM-36.376 7.628v2.004h158V7.628h-158z" fill="#000" mask="url(#path-1-inside-1_8_23)"/></svg>