<svg version="1.0" xmlns="http://www.w3.org/2000/svg" width="2304" height="2304" viewBox="0 0 1728 1728"><path d="M1408.5 482.1c-4.9 1-9.7 2-10.5 2.2-.8.1-2.1.6-2.8 1.1-.7.4-1.6.5-1.9.2-.3-.3-1.3-.1-2.3.4-.9.5-2.8 1.1-4.1 1.4-3.2.6-23.1 7.7-29.4 10.5-24.1 10.8-50.5 27.7-69 44.1-5 4.5-22 21.4-26.3 26.3-10 11.3-28.1 36.7-32.7 45.7-1 1.9-2.1 3.7-2.5 4-.3.3-1.7 2.5-2.9 5-1.3 2.5-2.9 5.6-3.7 7-.7 1.4-2.3 4.5-3.4 7s-2.5 5.2-3 6c-1.2 2.1-9.1 21.2-9.5 23-.2.8-1 3.1-1.8 5-.9 1.9-2.6 6.9-3.7 11-1.2 4.1-2.4 8.2-2.7 9-.3.8-.7 1.9-.8 2.5-.2.5-.8 3-1.5 5.5-1.2 4.3-1.4 5.4-2.5 10.1-.2 1.1-.6 2.8-.9 3.7-.3.9-.8 3-1.1 4.7-.3 1.6-1.2 7-2.1 12-1.9 10.4-2 11.3-3.9 28-2.6 22.3-2.6 71.2-.1 93 .6 4.9 1.8 14.8 2.1 18 .2 1.6.7 4.1 1 5.5.3 1.4.7 3.8 1 5.5 1 7.2 7 34 7.5 34 .1 0 .3.7.5 1.6 1.2 6.4 10.5 33.5 14.7 42.9 1.1 2.5 3.3 7.4 4.9 11 1.6 3.6 3.4 7.2 3.9 8 .6.8 1.6 2.6 2.2 4 .7 1.4 2.7 4.9 4.5 7.7 1.8 2.9 3 5.3 2.7 5.3-.3 0 .2.7 1 1.6.9.8 1.6 2.1 1.6 2.9 0 .7.3 1.5.8 1.7.4.1 2.3 2.8 4.2 5.8 4.5 7.1 19.4 26.9 25.7 34 5.5 6.3 18.8 19.6 25.7 25.7 10.5 9.4 35.1 27.3 37.6 27.3.5 0 1 .3 1 .7 0 .5 1 1.3 2.3 1.9 1.2.6 6.1 3.2 10.9 5.8 14.1 7.5 41.4 18.3 48.5 19.1 1.2.2 2.7.6 3.3 1 .5.3 2 .8 3.3 1.1 2.1.4 4 .8 9 1.9 1.2.3 3.7.8 5.6 1.1 1.9.3 4.4 1 5.7 1.4 1.2.5 2.4.7 2.6.5.2-.3 3.1 0 6.4.5 22.9 3.6 60.4 3.1 83.9-1.1 3.3-.6 7.1-1.3 8.5-1.5 10.8-1.9 32.6-8.5 45.9-14 7.9-3.3 27.2-12.9 29.6-14.7.6-.4 5.7-3.7 11.5-7.3 5.8-3.6 10.7-6.9 11-7.3.3-.4 3-2.4 6-4.6 3-2.2 6-4.4 6.6-5 .6-.5 3.6-3 6.5-5.5 9.1-7.6 26.2-25.3 34.9-36.2 10.7-13.5 9.8-12.3 15.1-20.3 8.7-13.2 12.6-19.9 19.4-33.5 2.1-4.1 4.2-8.2 4.6-9 .5-.8 1.2-2.2 1.5-3 .8-1.9 3.3-7.7 5-11.5 1.9-4.2 7.1-18.5 10.1-27.5 1.3-4.1 2.7-8.4 3.1-9.5.4-1.1.8-50.8.9-110.4.3-95.3.1-109.1-1.2-113.8-.9-2.9-1.6-5.5-1.6-5.8 0-.2-.9-2.8-2-5.7-1.1-2.9-2.2-6.1-2.4-7-.2-.9-.9-2.7-1.6-4-.7-1.3-1.2-2.5-1.2-2.8.1-1-.5-2.6-6.8-17-3.2-7.4-18.7-37.8-19.9-39-.3-.3-1-1.4-1.7-2.5-6.1-10.2-9.7-15.5-10.4-15.5-.5 0-.9-.5-.9-1.1 0-.9-3.4-5.6-11-15.2-7.1-9.1-26.5-28.9-35.3-36.2-2.7-2.2-5.4-4.5-6-5-2.4-2.1-16.3-12.3-22.2-16.2-13.7-9.1-41.2-23.5-49.7-25.8-.5-.2-1-.4-1.3-.5-.3-.1-.8-.3-1.2-.4-.5-.1-1.2-.4-1.8-.8-.9-.5-20.1-6.5-23.5-7.3-19.3-4.4-22.1-4.5-65.9-4.4-37.4.1-43.7.4-51.6 2zm80 28.4c1.7.4 4.6.8 6.5 1 5.9.5 11.9 1.6 19.9 3.7 4.2 1 8.5 2.1 9.6 2.2 5 .9 25.6 8.8 33.5 12.8 3 1.5 6 2.8 6.7 2.8.7 0 1.3.4 1.3.9s1.4 1.4 3.2 2.2c3.8 1.5 27.7 17.3 33.4 22 2.3 1.9 6.1 5 8.5 6.9 5.5 4.4 21.3 20.3 25.9 25.9 1.9 2.3 4.2 5 5 5.9.9.9 2.9 3.5 4.5 5.7s3.2 4.2 3.5 4.5c1.2 1 7 10.1 7 11 0 .4.4 1 .8 1.2 1.6.6 19.8 33 20.7 36.8.1.3 1.4 3.2 2.9 6.5 3.9 8.3 15.3 39 14.6 39-.1 0 .1.7.3 1.5 1.3 3.9 3 11.4 3 12.6 0 .8.4 1.4.9 1.4s.7.4.4.8c-.3.4 0 2.6.5 4.8 1.5 6 2.6 12.1 3.5 18.9.2 1.6.6 3.9.8 5 .3 1.1.8 4.9 1.1 8.5.4 3.6.9 7.6 1.1 9 1 5.4 1.8 26.4 1.6 43-.1 15.3-.7 32.5-1.2 32.5-.1 0-.3 1.8-.4 4-.5 7.2-1.8 18-2.3 18.8-.2.4-.6 3.2-.9 6.1-.2 2.9-.8 6.5-1.3 7.9-.5 1.4-.7 2.8-.4 3.1.3.3.1 1.2-.5 1.9-.7.8-.9 1.6-.6 2 .3.3.1 2.1-.5 4-.7 1.9-1.3 4.3-1.5 5.3-.4 2-2.5 10.2-3 11.9-.1.5-.8 3-1.5 5.5s-1.5 5.2-1.8 6c-.3.8-.7 1.9-.8 2.5-.7 2.6-9.1 24.7-10.5 27.4-.5.9-3.6 7.2-6.9 14.1-7.2 14.8-9.3 18.5-17.6 31-6.9 10.4-6.9 10.4-17.1 22.9-18.7 22.7-42.6 42.5-69 57.3-10.4 5.8-29.7 14-39.4 16.8-4.1 1.2-8.2 2.4-9 2.7-.8.4-1.9.5-2.3.4-.4 0-1.6.3-2.5.8-.9.5-3.5 1.2-5.6 1.5-2.1.4-4.8.8-6 1.1-1.9.4-4.1.7-12.6 2-18.5 2.8-50.6 2.4-72-.9-5.9-.9-17.1-3.4-24-5.3-22.1-6-44.9-16.3-62.2-28.1-2.6-1.7-5.2-3.2-5.8-3.2-.5 0-1-.3-1-.8 0-.4-1.7-1.8-3.8-3.2-2-1.4-4.2-2.9-4.9-3.5-.6-.5-3-2.6-5.4-4.5-16.5-13.6-29.4-27.3-42.9-45.5-2.5-3.3-4.8-6.2-5.2-6.3-.5-.2-.8-.7-.8-1.2 0-.8-6.1-10.5-8-12.7-.5-.7-1-1.4-1-1.7 0-.3-1.5-3.1-3.4-6.3-4.2-7.2-11.6-21.6-11.6-22.5 0-.4-1.1-3.1-2.4-6-2.3-5.1-5-11.7-5.2-12.8 0-.3-.6-1.9-1.3-3.5-.7-1.7-1.4-3.7-1.7-4.5-.2-.8-1.5-5.3-3-10-1.4-4.7-3-10.1-3.4-12-4-16.9-7.3-34.3-8.5-44.5-.4-2.8-.8-6.4-1-8-2.5-20.7-2.5-63.8 0-90 .8-8.6 5.2-36 6.1-38.5.3-.8.8-2.6 1-4 1.3-6.7 5.4-21.3 8.1-28.5.8-2.2 1.5-4.2 1.5-4.5.1-.9 1-3.2 4.8-13 5.5-13.7 14.2-31.6 20.1-41 12.4-19.9 19.3-29.2 30.7-41.9 12-13.4 23.1-23.8 34.4-32.1 2.9-2.2 5.8-4.3 6.3-4.8 2.3-1.9 13.4-9.2 14.1-9.2.4 0 1.5-.6 2.3-1.4 3.5-3.1 31.5-16.6 34.3-16.6.9 0 2-.5 2.3-1 .4-.6 1.1-.8 1.6-.5.5.4.9.2.9-.3s1.9-1.3 4.3-1.9c2.3-.6 7.8-2.1 12.2-3.3 9.7-2.7 8.9-2.5 15-3.5 5.7-1 6.4-1.2 6.8-1.5.1-.1 1.6-.3 3.2-.4 8.2-.8 17-1.9 17.3-2.1.7-.6 42.8.3 45.7 1z"/><path d="M1447.8 603.5c-.2.3-3.1.7-6.3 1.1-3.3.3-6.3.8-6.7 1.1-.5.2-1.8.6-2.9.8-10.5 2-24.5 8.1-36.2 15.8-14.8 9.7-28.2 22.8-38.5 37.8-2 3-4 5.5-4.4 5.7-.5.2-.8 1-.8 1.7 0 .8-.6 2-1.3 2.7-1 1.1-4.5 7.2-7.8 13.8-2.6 5.1-9.2 20.4-9.5 22 0 .3-.4 1.2-.7 2-1 2.4-5.3 17.9-6.6 24-.7 3-1.5 6.2-1.8 7-.3.8-.7 2.8-.8 4.5-.2 1.6-.6 4.3-1 6-.3 1.6-.8 4.8-1 7-.3 2.2-.7 5.8-1 8-2.4 19.4-2.4 66.8-.1 79.2.2 1.1.7 4.6 1 7.9.4 3.2.8 6.6 1.1 7.4.2.8.6 3.1.9 5 6.1 39.1 25.8 79.3 50.7 103.7 9.3 9.1 11.5 10.9 20.4 16.7 14.3 9.4 25.3 14.2 40 17.5 13.9 3.1 36.8 3.4 49.5.7 1.4-.3 3.9-.8 5.5-1.2 10.2-2.1 24.1-8.3 36-16.2 15.9-10.5 36.8-32.8 45.1-48.2 1-1.9 2.1-3.7 2.4-4 3.5-3.4 19.1-40.5 17.8-42.2-.1-.2.4-1.2 1-2.4.6-1.1 1.3-3.2 1.6-4.5.2-1.3 1.1-5.1 2-8.4.8-3.3 1.7-7.1 2-8.5.4-2.2 1.2-6.9 2.2-12.5.2-1.1.7-4.4 1-7.4.3-3 .8-6.3 1-7.5 2.2-11.6 2.1-55.8-.2-72.1-.3-2.2-.7-5.4-.9-7-.4-3.9-1.4-10.3-2.1-13.5-.3-1.4-.7-3.7-.9-5.2-.2-1.5-.9-4.6-1.6-7-.6-2.4-1.3-5.4-1.6-6.8-1.1-6.5-9.8-30.2-16.1-44-4.3-9.4-17.2-29.7-22.7-35.6-9.6-10.6-18.7-18.7-29-26.2-10-7.2-29.9-15-45.5-17.8-4-.7-32.6-1.5-33.2-.9zm27.1 32.6c8 1.3 9 1.5 14.6 3.4 5.8 1.9 18.9 8.8 21.1 11 .9.8 2 1.5 2.5 1.5 2 0 19.7 18.8 24.6 26 6.3 9.4 12.1 20.3 15.7 29.5 1.6 3.8 3.4 8.3 4.1 10 2 4.8 5.5 16.4 5.5 18.4 0 1 .3 2.1.7 2.5.4.3.8 1.2.9 1.9.1.7.6 3.7 1.3 6.7 2.4 12.2 3.8 22.6 4.7 35.5.5 7.2.5 38-.1 44.5-1 12.8-2.8 26-4.7 34-.5 2.5-1.1 5.2-1.3 6-1.4 6.7-5.9 21.8-8 26.5-4.6 10.7-9.1 20-9.7 20.3-.5.2-.8.8-.8 1.4 0 .5-2.4 4.7-5.4 9.1-24.4 37.1-56.5 53.1-94.3 47-20-3.2-37-12.7-52.6-29.4-6.5-6.9-18.3-23.5-20.6-28.9-.6-1.4-1.5-3.2-2-4-2-3.4-6.1-13-6.1-14.4 0-.8-.4-1.6-.9-1.8-.6-.2-1.1-1.4-1.3-2.8-.2-1.4-.6-3-.9-3.5-.7-1.2-5.6-19.6-6.3-24-.3-1.7-.8-4.1-1.1-5.4-.6-3.2-1.6-10.7-2.1-16.1-.2-2.5-.6-6.8-1-9.5-.8-6.4-.9-45.2-.1-52.5.3-3 .8-8.2 1.1-11.5.3-3.3.8-7.1 1.1-8.5.2-1.3.7-4.2 1-6.5.3-2.2.8-4.8 1.1-5.8.4-1.1.8-3.1 1-4.5.8-4.5 1.2-6.7 1.4-6.7.1 0 .3-.7.5-1.5.1-.8.8-3.5 1.6-6 .7-2.5 1.3-5 1.5-5.5 1.6-7.2 11.9-28.9 18.5-39 7.7-11.9 13.7-18.8 24.9-28.5 4.1-3.6 14-10.1 14-9.3 0 .4.4.3.8-.2.7-1.1 8.1-4.6 9.4-4.6.4 0 2.8-.8 5.3-1.9 2.5-1.1 4.5-1.8 4.5-1.6 0 .2 2.6-.2 5.8-.9 6.9-1.5 22.4-1.7 30.1-.4zM851.7 493.7c-.2.1-4.5.5-9.7.8-5.2.3-11.1.8-13 1-1.9.2-5.5.6-8 .9-4.9.5-8.5 1.1-17 2.7-3 .6-7.1 1.3-9 1.6-6.1.9-6.5 1-8 1.6-.8.3-4.9 1.3-9 2.2-4.1.9-11.5 2.8-16.5 4.2-4.9 1.4-9.7 2.6-10.5 2.8-.8.2-3.5 1.1-6 2-2.5.9-5.2 1.8-6 2-4.3 1-24.3 8.8-33.5 13-2.7 1.2-5.2 2.2-5.5 2.2-.3 0-2.5 1-5 2.3-2.5 1.3-4.6 2.3-4.7 2.2-.1 0-4.8 2.4-10.3 5.4-5.6 3-10.6 5.4-11.1 5.4s-.9.4-.9 1c0 .5-.4 1-.9 1-2.2 0-24.5 14.4-36 23.2-2 1.5-4 3.1-4.6 3.5-8.2 6.3-17.5 14.5-27.1 24.1-7 6.9-7.2 7.4-5.6 9.1 2.4 2.4 12.3 13.9 14.7 16.9 1.1 1.4 3 3.6 4.3 5 1.2 1.4 4.4 5 7 8 2.6 3 5.6 6.4 6.7 7.7 1.1 1.2 4.3 4.9 7 8 2.8 3.2 5.5 6.2 6 6.9.6.6 3.5 4 6.5 7.6 7.5 8.9 10.9 12.8 14.7 16.7 1.7 1.8 2.8 3.3 2.5 3.3-.4 0-.2.4.4.8.9.6 6.4 6.6 12.8 14.2 2.9 3.4 16.9 19.5 21.5 24.8l3.8 4.2 5.8-7.2c12.3-15.5 20.3-24.1 32.6-35 11-9.8 12.8-11.2 21.9-17.8 3-2.2 6-4.3 6.5-4.8.6-.4 2.1-1.3 3.5-2s3.9-2 5.5-3c1.7-1 5.9-3 9.5-4.6 3.6-1.5 7.4-3.1 8.5-3.6 3.1-1.4 11.7-4.1 14.5-4.7 1.4-.2 4.3-.8 6.5-1.3 9.9-2.2 32.7-3 47.1-1.7 13.2 1.2 29.5 7.7 39.4 15.6 5.6 4.5 11 10 11 11.3 0 .4.6 1.3 1.4 2 2.7 2.7 6.8 12.1 8.1 18.7 1.2 5.8 1.3 15.6.2 20.1-1 4.1-4.3 11.6-6 13.6-4.2 5.3-13.1 13.9-18.7 18.1-14.7 11-47.8 30.9-75.6 45.3-28.4 14.8-45.5 24-47 25.1-.6.5-1.4.6-1.7.2-.4-.3-.7-.1-.7.5 0 .7-.4 1.2-.8 1.2-1.4 0-23.7 12.2-24 13.2-.2.4-.8.8-1.3.8-2.3 0-41.9 25.9-45.9 30-.3.3-2.3 1.9-4.5 3.5s-4.9 3.7-6 4.6c-21.6 18-38.2 35.1-50.5 51.9-3 4.1-5.8 7.6-6.2 7.8-.5.2-.8.8-.8 1.3 0 .6-1.7 3.6-3.8 6.7-7.8 11.5-16.1 29.7-22.4 48.7-4.8 14.4-4.1 11.9-7.7 29.3-2.8 13.3-3.5 17.6-4.6 27.7-.3 2.2-.7 5.3-.9 7-.9 5.7-1.9 23-2 32.2-.1 5.1-.3 9.3-.6 9.3s-.5 1.6-.5 3.5.3 3.5.7 3.5c.4 0 .5.6.2 1.3-.6 1.8-1 19.7-.4 19.8.3.1 118.5.2 262.7.3 174.5.1 262.4-.2 262.6-.9.3-.9.1-153.3-.2-154.5 0-.3-66.5-.5-147.6-.5s-147.5-.3-147.5-.6c0-.4 1.5-2.2 3.4-4 14.4-14.3 49.1-39 69.6-49.4 4.1-2.2 7.7-4.1 8-4.4.3-.4 2.5-1.6 5-2.9 2.5-1.2 7.7-4 11.5-6.1 6.8-3.8 12.6-6.9 32.5-17.4 5.2-2.7 12-6.5 15.1-8.3 3.1-1.9 6-3.4 6.3-3.4 1.3 0 45.1-29.3 45.9-30.6.4-.8 1.4-1.4 2.2-1.4.7 0 1.5-.3 1.7-.8.2-.4 2.3-2.3 4.8-4.2 20.5-15.9 36.4-32.9 49.6-53 10.9-16.6 20.7-37.5 22.8-48.6.2-1 .9-3.8 1.6-6.2.6-2.4 1.3-5.5 1.5-7 .2-1.5.6-4.5.9-6.7 2.6-17 2.2-43-1-59.5-.9-5.2-1.2-6.5-1.4-6.5-.1 0-.3-1.4-.5-3-1.3-9.7-12.7-39.2-18.5-47.4-1-1.4-3.9-5.9-6.5-10-12.7-19.8-33.3-39.3-55.4-52.4-27.8-16.5-54.7-26.2-88.6-32.2-19.9-3.5-35.6-4.7-61.3-4.9-10.6-.1-19.4-.1-19.5.1zm45.3 32.7c9.2.6 14.4 1.1 20.1 2.1 1.5.3 4.4.7 6.5 1 3.8.5 6.5.9 11.4 2 1.4.3 3.4.7 4.5.9 5.4 1.2 21.9 5.8 23.5 6.6.9.5 2 .6 2.4.3.3-.3.6-.1.6.5 0 .7.7 1.2 1.5 1.2 5 0 43.2 19.2 47 23.6.6.6 1.7 1.5 2.6 2 1.7.9 9.4 7.3 14 11.6 2 1.9 13.5 15.1 17 19.5.5.7 1.4 2.4 2.1 3.8.6 1.4 1.4 2.5 1.8 2.5.3 0 1.7 2.2 3.1 5 1.3 2.7 2.7 5 3.2 5 .4 0 .7.9.7 2s.5 2 1 2c.6 0 1 .8 1 1.8s.4 2.2.8 2.7c.9 1 4 8.6 4.8 11.5.2.8 1.1 4 2 7 .9 3 2 7.4 2.5 9.8.8 4 1.1 6.1 2.4 16.7.6 5 .7 28.1.1 31.5-.3 1.4-.7 4.3-1 6.5-.3 2.2-.8 5.1-1.1 6.5-.3 1.4-.7 3.4-.9 4.5-1.3 7.1-5.4 17.8-10.4 27.6-5.8 11.2-11.8 21.1-13.4 21.7-.4.2-.8.8-.8 1.3 0 1-.9 2.1-9.1 11.8-7.5 8.8-19 19.4-30.9 28.6-3.6 2.7-6.7 5.2-7 5.5-.3.3-1.2.9-2.2 1.5-.9.5-8.7 5.8-17.5 11.6-8.7 5.9-17.6 11.7-19.8 12.9-2.2 1.2-5.6 3.1-7.5 4.2-4 2.4-10.9 6.1-26.5 14.3-10.7 5.6-17.4 9.2-26.5 14.3-2.5 1.3-8.3 4.5-13 7-18 9.6-50 29.9-50.8 32.3-.2.5-.8.9-1.4.9-.6 0-2.2 1-3.7 2.2-1.5 1.3-4 3.2-5.5 4.3-1.5 1.1-3.6 2.7-4.6 3.5-14.4 11.9-21.2 18.6-29.1 28.5-7.4 9.2-16.9 23-16.9 24.4 0 .6-.4 1.1-.8 1.1s-1.3 1.2-1.9 2.7c-.7 1.6-3.2 5.9-5.7 9.8-2.4 3.8-4.3 7.2-4.1 7.5.2.3 73 .5 161.9.5s161.7.2 161.7.5c.5 2.4.3 89.7-.2 90.5-.5.7-78.1 1-230.1.9-126.1-.1-229.6-.2-230-.3-.9-.1.3-25.3 1.7-34.1.2-1.4.6-5 1-8.1.3-3.1.7-6.5.9-7.5.2-1.1.7-4.1 1-6.8.4-2.7.9-5.3 1.1-5.7.3-.4.7-2.4 1.1-4.5 1.2-7.6 7-27.6 10.6-36.3.6-1.4 1.2-2.9 1.2-3.2.2-1.6 7.2-15.5 8.1-16.1.6-.4.7-.8.3-.8-1.1 0 11.5-20.4 14.2-23 .3-.3 1.8-2.3 3.5-4.5 1.6-2.2 4.1-5.3 5.5-6.9 4.9-5.7 12-13.6 12-13.3 0 .1 3.7-3.4 8.3-7.8 4.6-4.4 9.8-9.1 11.6-10.5 1.8-1.4 4-3.1 4.8-3.9 1.4-1.3 8.5-6.8 15-11.6 1.5-1.1 7.2-5 12.7-8.7 5.6-3.7 10.6-7.2 11.3-7.8.7-.5 1.5-1 1.8-1 .4 0 2.6-1.4 5.1-3 2.4-1.7 4.4-2.8 4.4-2.4 0 .4.8 0 1.8-.8 2.4-2.2 14.7-8.9 51.2-28.1 6.3-3.4 15.1-8 19.5-10.3 4.4-2.3 11.2-5.9 15-7.9 3.9-2 9.5-5.1 12.6-6.8 3-1.8 8.6-5 12.5-7.1 3.8-2.2 7.1-4.4 7.2-4.8.2-.4.8-.8 1.3-.8.9 0 8.8-4.9 23.9-14.9 9.2-6 10.2-6.7 13.1-9.4 1-.9 2.1-1.7 2.4-1.7.3 0 4.4-3.7 9-8.1 17.9-17.3 25-33.3 24.9-56.4-.1-19.8-4.9-33.6-17.9-51.3-.5-.8-4.1-4.5-7.8-8.3-14.2-14.4-33-24-55.5-28.4-13.5-2.6-44.3-2.6-58.2 0-1.4.2-4.1.7-6 .9-1.9.3-5.3 1-7.5 1.6-2.2.6-4.9 1.3-6 1.5-1.1.3-5.8 1.9-10.5 3.6-4.7 1.7-10 3.6-11.7 4.3-1.8.6-3.3 1.4-3.3 1.8 0 .5-.7.8-1.5.8-4.1 0-34.1 20-46.5 31-3.7 3.3-21 19.3-22.3 20.6-.8.8-.9.7-10.7-10.6-3.6-4.1-6.9-8-7.5-8.6-.5-.6-3-3.5-5.5-6.4-2.5-2.9-5.2-6.1-6.1-6.9-.8-.9-3.7-4.3-6.5-7.6-2.7-3.2-5.6-6.6-6.4-7.5-1.6-1.7-3.4-3.8-14-16-3.6-4.1-6.8-7.7-7.2-7.8-1.8-.8-.6-3.1 3-5.8 2-1.6 4.8-3.9 6.2-5.1 1.4-1.3 2.8-2.3 3.2-2.3.3 0 1.3-.6 2-1.3 2.5-2.5 22.2-15.7 23.4-15.7.7 0 1.4-.4 1.6-.8.7-1.7 30.1-17.2 32.5-17.2.7 0 1.3-.4 1.3-1 0-.5.3-.9.8-.8.8.1 3.8-1 11.6-4.6 5.2-2.4 29.6-11.5 32.6-12.1.8-.2 6.4-1.8 12.3-3.5 6-1.6 11.8-3.2 13-3.4 1.2-.3 2.2-.5 2.2-.6 0-.1.7-.3 1.5-.5.8-.1 4.9-1 9-1.9 8.1-1.8 9.7-2.1 18-3.6 5.1-.8 10.1-1.5 19-2.5 1.9-.3 8.2-.7 14-1.1 5.8-.3 10.6-.7 10.7-.7.4-.4 32.4.1 41.3.7zm-556.7-22.6c-1.3.2-2.3.8-2.3 1.4 0 .8-4.5 6.9-8.5 11.4-.5.7-1.9 2.4-3 4-1.1 1.5-4 5.3-6.5 8.4-8.3 10.5-10.2 12.9-23.2 29.7-7.1 9.3-13.7 17.7-14.6 18.8-1 1.1-4 4.9-6.7 8.5-2.7 3.6-5.4 7-6 7.7-1.8 2.2-3 3.7-6 7.8-1.7 2.2-3.2 4.2-3.5 4.5-.3.3-3.5 4.3-7.1 9-5.9 7.7-33.7 43.4-36.6 47-1.5 1.9-23.7 30.4-26.7 34.3-1.1 1.5-2.8 3.6-3.6 4.6-.8 1-2.6 3.3-4 5.1-1.4 1.8-12.4 15.9-24.4 31.4-12.1 15.5-24 30.8-26.5 34.1-2.5 3.3-4.8 6.2-5.1 6.5-.5.4-8.9 11.2-11.2 14.5-.7.9-6.3 8-9.1 11.5-.7.8-2.9 3.7-5 6.5-2.1 2.7-5 6.5-6.5 8.4-2.3 2.8-5.6 7-10 12.6-.4.5-2.8 3.7-5.2 7-2.5 3.3-5 6.4-5.6 7-.6.5-3.1 3.7-5.5 7s-4.6 6.2-4.9 6.5c-.8.8-5.2 6.2-8 10-3.4 4.4-21.7 28.1-23.3 30-.7.8-5.1 6.5-9.7 12.5-4.6 6.1-8.7 11.2-9 11.5-.3.3-3.4 4.1-6.8 8.6L0 939.7v158.1l143.5-.1c94.9-.1 143.6.1 143.8.8.2.5.3 34.4.2 75.3l-.1 74.2 84.6-.2 84.5-.3.1-74.3c.1-40.8.3-74.5.7-74.8.3-.3 20.6-.6 45.1-.6H547v-77.4l-.1-77.4H502c-35.3 0-45-.3-45.1-1.3 0-.6-.1-99.4-.1-219.5-.1-120-.4-218.2-.7-218.3-1.6-.3-113.9-.4-115.8-.1zM424.7 754c0 120.2.1 219.1.2 219.7.1 1 9.8 1.3 45 1.3h44.9l-.1 45.2-.2 45.3-44.3.2c-24.4 0-44.6.4-45 .7-.3.4-.6 34.3-.6 75.4-.1 41.1-.4 75.1-.8 75.7-.4.6-18.7 1-52 .9-28.2-.1-51.5-.2-51.8-.3-.3-.1-.5-34.1-.5-75.7s-.2-75.9-.5-76.2c-.3-.4-67.5-.7-149.5-.7h-149v-99.8l2.3-3.1c1.2-1.7 3.1-4.2 4.2-5.6 1.1-1.4 3.5-4.4 5.3-6.6 1.7-2.3 4.4-5.7 5.9-7.5 1.4-1.9 9.4-12.2 17.7-22.9 8.3-10.7 15.7-20.2 16.4-21 .6-.9 3-3.8 5.2-6.5 2.1-2.8 4.4-5.3 5-5.7.6-.5.6-.8 0-.8s-.5-.3.1-.8c1.1-.7 6.6-7.6 19.7-24.7 3.3-4.4 6.4-8.2 6.7-8.5.4-.3 1.1-1.2 1.6-2.1.5-.9 2.3-3.4 4.1-5.5 1.8-2.1 9.3-11.8 16.8-21.4 7.5-9.6 14.7-18.9 16-20.5 1.3-1.7 3.1-3.9 4-5 2.4-3.1 18-23.2 24.7-31.9 3.3-4.3 6.6-8.6 7.4-9.5 1.2-1.5 10.9-13.9 16.1-20.7 4.8-6.1 8.6-11 10.9-13.9 1.3-1.7 5.2-6.6 8.6-11.1 3.5-4.5 11.5-14.8 17.9-23 6.4-8.2 17.8-22.8 25.3-32.4 7.4-9.6 14.5-18.6 15.6-19.8 1.1-1.3 2-2.7 2-3.2s.3-1 .8-1.2c.6-.3 2.9-3.1 10.9-13.5 1.2-1.5 3-3.8 4-5 1-1.2 2.7-3.4 3.8-4.9 3.4-4.6 13.8-17.9 14.5-18.4.4-.3 1.1-1.2 1.6-2.1 1-1.8 5.9-8 8.7-11 .9-1 1.7-2.1 1.7-2.3 0-.3 3.7-5.2 8.3-10.9 4.5-5.7 9.3-11.9 10.7-13.7 1.4-1.9 3.3-4.2 4.3-5.2.9-1 1.7-2.1 1.7-2.5 0-.4 1.1-1.8 2.4-3.2l2.5-2.6h68.6l.2 218.5z"/><path d="M332.3 683.4c-1 1.3-2.6 3.5-3.5 4.7-2 2.8-41.3 54.1-46.9 61.4-4.4 5.7-6.2 7.9-8.9 11.5-7.1 9.4-27.4 36-29.2 38.4-1.3 1.6-8 10.4-15 19.5s-13.1 17-13.5 17.6c-.5.5-5.1 6.6-10.3 13.5-5.2 6.9-9.7 12.7-10 13-.3.3-3.4 4.3-7 9-8 10.7-11.8 15.6-15.3 20-1.5 1.9-3.1 4-3.5 4.5-3.7 5.3-13.8 18.1-14.4 18.3-.4.2-.8 1-.8 1.7s-.4 1.5-.8 1.7c-.8.3-14.8 18.3-18.2 23.2-1.2 1.8-7.9 10.5-16.2 21.1-6.1 7.7-8.8 11.4-8.8 11.9 0 .3 50.6.6 112.5.6h112.4V828c0-80.9-.1-147-.4-147-.2 0-1.2 1.1-2.2 2.4zm-29.4 176.1v83.4l-64 .1c-35.1 0-63.9-.2-63.9-.6 0-.5 3.1-4.8 6.7-9.4.7-.8 3.3-4.2 5.8-7.5 6.8-9 8-10.5 12.7-16.5 2.4-3 5.1-6.6 6.1-8 .9-1.4 3.8-5.3 6.5-8.6 2.6-3.4 8.9-11.7 14.1-18.5 5.2-6.8 9.7-12.6 10.1-12.9.3-.3 3-3.9 6-8s5.7-7.7 6-8c.4-.3 3.5-4.3 7-9s6.6-8.7 6.9-9c.4-.3 3.3-4.1 6.5-8.5 3.3-4.4 6.2-8.2 6.5-8.5.3-.3 3.3-4.1 6.6-8.5s6.4-8.5 7-9.1c.5-.6 3.5-4.5 6.5-8.7 3-4.2 5.8-7.6 6.2-7.6.4-.1.7 37.5.7 83.4z"/></svg>